<svg xmlns="http://www.w3.org/2000/svg" viewBox="0 0 1376.77 310.79"><defs><style>.cls-1{fill:#1b2123;}.cls-2{fill:#e3b505;}.cls-3{fill:#654f6f;}.cls-4{fill:#db504a;}.cls-5{fill:#4d9078;}.cls-6{fill:#f7f7ff;}</style></defs><g id="Layer_2" data-name="Layer 2"><g id="Layer_1-2" data-name="Layer 1"><path class="cls-1" d="M863.46,113.62v11.77c7.49-8.89,17.92-15.17,31.07-15.17,32.42,0,45.12,38.44,45.12,74.79S927,259.8,894.3,259.8c-11.79,0-21.31-5-28.57-12.55V297.2l-34.91,13.59V113.62Zm2.27,46.29v50.47c4.54,7.58,10.88,12.81,19.73,12.81,15.64,0,21.08-17,21.08-38.18s-5.44-38.18-21.08-38.18C876.61,146.83,870.27,152.32,865.73,159.91Z"/><path class="cls-1" d="M401.85,163.83c-3.85-10.46-11.11-16.48-20.18-16.48-12.47,0-23.12,11.51-23.12,37.92s10.65,37.66,23.12,37.66c7.94,0,15-4.45,19.95-14.12l24.72,20.92c-5.44,10.72-20.18,30.07-46.71,30.07-30.38,0-55.32-25.89-55.32-74.79s24.94-74.79,57.82-74.79c22.89,0,38.31,12.55,45.11,29.55Z"/><path class="cls-1" d="M482.34,113.62v89.7c0,13.07,8.16,18.82,17.91,18.82,6.35,0,13.15-2.35,17.91-13.59V113.62h34.92V256.4H520.43V245.68C512,255.09,501.16,259.8,488,259.8c-24.26,0-40.59-16-40.59-49.16v-97Z"/><path class="cls-1" d="M615,196.78c3.18,19.61,13.61,27.19,24.49,27.19,8.61,0,14.28-5,18.82-12.55L681.4,234.7c-7,10.72-21.08,25.1-44,25.1-30.38,0-55.32-25.37-55.32-75.57,0-47.86,22.44-74,54-74,31.29,0,54,25.89,54,74.79a90.59,90.59,0,0,1-.68,11.77Zm.68-28.77h40.81c-3.17-14.38-10.43-21.7-20.4-21.7C625.85,146.31,618.6,154.15,615.65,168Z"/><path class="cls-1" d="M793.86,159.12c-8.84-8.11-22.67-13.34-34.92-13.34-9.52,0-11.79,3.14-11.79,6.28,0,3.66,3,6,6.81,8.11,7.7,4.18,25.62,10.72,37.86,18.83,12,8.1,17.68,17.52,17.68,34.78,0,37.13-26.52,46-50.33,46-23.13,0-42.85-8.37-51.92-16.74L720,209.59c9.29,7.06,24.48,13.34,39.45,13.34,10.2,0,15.64-2.88,15.64-8.89,0-4.45-2.95-7.06-10.65-10.46-21.09-9.42-27.21-12.29-34.92-17.26-8.16-5.49-17-13.86-17-32.95,0-30.07,22-43.15,48.75-43.15,19.27,0,35.6,6.8,44.67,14.64Z"/><path class="cls-1" d="M1072.05,185c0,48.9-22.44,74.79-54,74.79-31.74,0-54-25.89-54-74.79s22.45-74.79,54-74.79C1049.38,110.22,1072.05,136.11,1072.05,185Zm-74.82.26c0,24.85,8.17,37.66,20.86,37.66s21.09-12.81,21.09-37.66c0-25.1-8.39-37.92-21.09-37.92S997.23,160.17,997.23,185.27Z"/><path class="cls-1" d="M1169.09,154.15q-5.43-6.27-15-6.27c-6.58,0-13.38,2.35-18.14,13.86V256.4h-34.92V113.62h32.65v9.94c7.48-8.89,17-13.34,27.66-13.34s17,4.45,20.64,8.63Z"/><path class="cls-1" d="M1203.1,113.62V76.75L1238,63.15v50.47h26.07v32.43H1238v62.76c0,6.53,2.72,9.94,10.88,9.94,7.25,0,11.79-2.62,15.87-6.8l-5.67,35c-5,6.27-15.41,10.72-25.39,10.72-16.78,0-30.61-12.55-30.61-39.23V146.05h-14.74V113.62Z"/><path class="cls-1" d="M1361.13,159.12c-8.84-8.11-22.67-13.34-34.92-13.34-9.52,0-11.79,3.14-11.79,6.28,0,3.66,2.95,6,6.8,8.11,7.71,4.18,25.63,10.72,37.87,18.83,12,8.1,17.68,17.52,17.68,34.78,0,37.13-26.52,46-50.33,46-23.13,0-42.85-8.37-51.92-16.74l12.69-33.47c9.3,7.06,24.49,13.34,39.46,13.34,10.2,0,15.64-2.88,15.64-8.89,0-4.45-3-7.06-10.66-10.46-21.08-9.42-27.2-12.29-34.91-17.26-8.17-5.49-17-13.86-17-32.95,0-30.07,22-43.15,48.75-43.15,19.27,0,35.6,6.8,44.67,14.64Z"/><path class="cls-1" d="M334.31,78.59A1.68,1.68,0,0,1,335.87,77a1.37,1.37,0,0,1,1,.49,18.7,18.7,0,0,0,13.32,5.25c5.74,0,12.35-1.85,12.35-9.43,0-4.08-2-6.71-9.34-9.14L346.56,62c-6.9-2.33-11.37-5.15-11.37-11.47,0-9.73,10.11-11.58,15-11.58,3.6,0,8,.39,12.16,3.21.38.3.77.59.77,1.17a1.51,1.51,0,0,1-1.26,1.56,1.83,1.83,0,0,1-1-.3,20.3,20.3,0,0,0-10.7-2.91c-3.89,0-12.06,1.16-12.06,8.85,0,5,3.5,6.8,9,8.65l6.61,2.24c8.75,2.92,11.67,6.61,11.67,12,0,9.14-8.17,12.16-15.27,12.16a23.89,23.89,0,0,1-15.27-5.84C334.41,79.17,334.31,79,334.31,78.59Z"/><path class="cls-1" d="M382,22.09a2.53,2.53,0,1,1,2.52-2.53A2.45,2.45,0,0,1,382,22.09Zm1.36,62.14c0,1.07-.59,1.27-1.36,1.27s-1.36-.2-1.36-1.27V40.18c0-1.07.58-1.27,1.36-1.27s1.36.2,1.36,1.27Z"/><path class="cls-1" d="M400.43,77.13V18.3c0-1.07.58-1.27,1.36-1.27s1.36.2,1.36,1.27V76.84c0,4.67,1.66,5.93,5.94,5.93,1,0,1.36.49,1.36,1.27,0,1.36-1.07,1.46-2.53,1.46C403.06,85.5,400.43,83,400.43,77.13Z"/><path class="cls-1" d="M423.48,22.09A2.53,2.53,0,1,1,426,19.56,2.45,2.45,0,0,1,423.48,22.09Zm1.36,62.14c0,1.07-.59,1.27-1.36,1.27s-1.37-.2-1.37-1.27V40.18c0-1.07.59-1.27,1.37-1.27s1.36.2,1.36,1.27Z"/><path class="cls-1" d="M471.61,79a1.61,1.61,0,0,1,1.46,1.65,1.43,1.43,0,0,1-.78,1.17c-4.47,3.21-9.24,3.7-13.81,3.7-15.75,0-18-10.31-18-23.25s2.24-23.34,17.8-23.34c5.64,0,9.24,1,12.93,4A1.5,1.5,0,0,1,471.9,44a1.77,1.77,0,0,1-1.65,1.65,1.34,1.34,0,0,1-.88-.48c-2.72-2.72-6.9-3.5-10.89-3.5-13.61,0-15.07,8.56-15.07,20.61s1.46,20.52,15.36,20.52c4.48,0,8.08-.58,12.06-3.5A1.61,1.61,0,0,1,471.61,79Z"/><path class="cls-1" d="M501.36,38.91c15.76,0,18,10.31,18,23.34s-2.23,23.25-18,23.25-18-10.31-18-23.25S485.61,38.91,501.36,38.91Zm0,43.86c13.62,0,15.08-8.56,15.08-20.52S515,41.64,501.36,41.64s-15.07,8.56-15.07,20.61S487.75,82.77,501.36,82.77Z"/><path class="cls-1" d="M553.29,38.91c10.21,0,16.92,4.28,16.92,19.84V84.23c0,1.07-.58,1.27-1.36,1.27s-1.36-.2-1.36-1.27V58.75c0-12.64-4.48-17.11-14.2-17.11-14.2,0-15.56,9-15.56,18.47V84.23c0,1.07-.58,1.27-1.36,1.27S535,85.3,535,84.23V40.28c0-1.07.58-1.27,1.36-1.27s1.36.2,1.36,1.27v4.37c0,.59.19.68.49.68s.68-.78,1-1.07C543,40.18,547.45,38.91,553.29,38.91Z"/><path class="cls-1" d="M623.88,83.65a2.65,2.65,0,0,1-5,0l-16.05-42.6a3.58,3.58,0,0,1-.29-1c0-.78,1-1.17,1.75-1.17a1.1,1.1,0,0,1,1,.88l15.46,41c.2.58.3,1.26.68,1.26s.49-.68.68-1.26l15.47-41a1.1,1.1,0,0,1,1-.88c.78,0,1.75.39,1.75,1.17a4,4,0,0,1-.29,1Z"/><path class="cls-1" d="M664.63,38.91c13.51,0,16.62,7.3,16.62,18.09V80c0,2,.69,2.72,2.73,2.72,1,0,1.26.49,1.26,1.37,0,1.16-.87,1.46-2.23,1.46-3.31,0-4.48-2.14-4.48-4.67v-1c0-.58-.19-.77-.48-.77s-.69.48-1.07.87c-3.31,3.41-8.37,5.55-14.49,5.55-10.8,0-15.76-6.33-15.76-12.55,0-10.79,8.75-13.23,18-13.23h12.94c.77,0,.87-.38.87-.87V57c0-9.72-2.14-15.36-14.1-15.36-6.12,0-8.95,1-12.54,3.5a1.6,1.6,0,0,1-.88.39,1.71,1.71,0,0,1-1.55-1.75,1.35,1.35,0,0,1,.58-1C654.51,39.5,659.57,38.91,664.63,38.91Zm13.9,24.22c0-.58-.19-.88-.87-.88H665.4c-8.26,0-15.75,1.46-15.75,10.51,0,5.93,4.08,10,13.42,10,10,0,15.46-6.22,15.46-13.51Z"/><path class="cls-1" d="M698.66,77.13V18.3c0-1.07.58-1.27,1.36-1.27s1.36.2,1.36,1.27V76.84c0,4.67,1.65,5.93,5.93,5.93,1,0,1.36.49,1.36,1.27,0,1.36-1.07,1.46-2.52,1.46C701.28,85.5,698.66,83,698.66,77.13Z"/><path class="cls-1" d="M719.37,77.13V18.3c0-1.07.58-1.27,1.36-1.27s1.36.2,1.36,1.27V76.84c0,4.67,1.66,5.93,5.93,5.93,1,0,1.37.49,1.37,1.27,0,1.36-1.07,1.46-2.53,1.46C722,85.5,719.37,83,719.37,77.13Z"/><path class="cls-1" d="M738.82,62.25c0-13,2.14-23.34,18-23.34,13.71,0,17.79,8.08,17.79,21,0,3-.48,3.69-3.11,3.69H742.42c-.69,0-.69.39-.69.69.3,12,2.53,18.47,15.95,18.47a23.84,23.84,0,0,0,13.71-4.18,1.64,1.64,0,0,1,.78-.29A1.61,1.61,0,0,1,773.63,80a1.34,1.34,0,0,1-.68,1.17,28.38,28.38,0,0,1-15.36,4.38C742.32,85.5,738.82,77.52,738.82,62.25Zm18-20.61c-12.74,0-15.08,8-15.08,18.47,0,.39,0,.88.69.88H771.2a.61.61,0,0,0,.68-.68C771.88,49.81,769.74,41.64,756.81,41.64Z"/><path class="cls-1" d="M816.32,40c.19-.48.48-1.07,1.07-1.07a1.5,1.5,0,0,1,1.55,1.27,4.5,4.5,0,0,1-.48,1.55L796.29,97.94c-2.53,6.52-6.91,8.27-11,8.27-.88,0-1.17-.59-1.17-1.27s.29-1.26,1.17-1.26c3.21,0,6.61-1.36,8.75-6.9l4.47-11.48a4.42,4.42,0,0,0,.39-1.56,3.48,3.48,0,0,0-.29-1.26L783.16,41.83a5.33,5.33,0,0,1-.49-1.55,1.61,1.61,0,0,1,1.65-1.37c.69,0,1,.59,1.17,1.17l14.1,37.54c.39,1,.39,1.94,1,1.94s.68-1.26,1-1.94Z"/><circle class="cls-2" cx="239.65" cy="104.93" r="39.14"/><circle class="cls-3" cx="171.62" cy="39.14" r="39.14"/><circle class="cls-4" cx="171.62" cy="169.89" r="39.14"/><circle class="cls-5" cx="239.43" cy="237.69" r="39.14"/><circle class="cls-6" cx="105.38" cy="104.52" r="39.14"/><circle class="cls-1" cx="39.14" cy="169.89" r="39.14"/></g></g></svg>